<?xml version="1.0" standalone="no"?>
<!DOCTYPE svg PUBLIC "-//W3C//DTD SVG 20010904//EN"
 "http://www.w3.org/TR/2001/REC-SVG-20010904/DTD/svg10.dtd">
<svg version="1.0" xmlns="http://www.w3.org/2000/svg"
 width="179.000000pt" height="179.000000pt" viewBox="0 0 179.000000 179.000000"
 preserveAspectRatio="xMidYMid meet">
<metadata>
Created by potrace 1.11, written by Peter Selinger 2001-2013
</metadata>
<g transform="translate(0.000000,179.000000) scale(0.100000,-0.100000)"
fill="#000000" stroke="none">
<path d="M725 1778 c-274 -35 -527 -223 -641 -477 -52 -115 -69 -198 -68 -336
0 -114 9 -178 40 -267 114 -338 444 -566 798 -553 140 5 223 25 339 80 28 14
54 22 58 18 3 -5 21 -35 39 -68 18 -33 48 -84 67 -113 l33 -53 62 43 c86 59
237 211 287 288 46 71 48 78 24 87 -10 4 -36 18 -58 32 -22 14 -67 39 -101 57
l-61 31 23 46 c82 160 108 363 70 542 -56 267 -251 497 -505 594 -133 51 -266
67 -406 49z m211 -563 c188 -78 225 -335 67 -461 -56 -44 -100 -59 -173 -58
-109 2 -190 53 -241 154 -28 53 -32 154 -10 210 57 140 222 212 357 155z"/>
</g>
</svg>
