<svg xmlns="http://www.w3.org/2000/svg" width="168" height="225.969" viewBox="0 0 168 225.969">
  <defs>
    <style>
      .cls-1 {
        fill: #0d0b06;
        fill-rule: evenodd;
      }
    </style>
  </defs>
  <path id="Bardehle_Logo" class="cls-1" d="M83.839,77.968A26.069,26.069,0,0,0,73.231,56.22q-10.608-8.158-27.613-8.16H31.6L31.58,14.788a11.723,11.723,0,0,1,.883-4.713,6.1,6.1,0,0,1,3.66-3.1,23.947,23.947,0,0,1,4.892-1,61.628,61.628,0,0,1,6.431-.537V0H0.538V5.439c1.233,0.1,3.016.279,5.353,0.537a18.464,18.464,0,0,1,4.891,1,6.636,6.636,0,0,1,3.351,2.913,10.225,10.225,0,0,1,1.039,4.9V93.262a14.245,14.245,0,0,1-.77,4.829,5.622,5.622,0,0,1-3.62,3.219,32.957,32.957,0,0,1-5.815,1.418Q2.078,103.145,0,103.3v5.442H45.618q17,0,27.613-8.161A26.063,26.063,0,0,0,83.839,78.834c0-.146-0.007-0.288-0.012-0.431s0.012-.288.012-0.435M64.281,84.475a23.006,23.006,0,0,1-3.994,8.8,19.956,19.956,0,0,1-7.9,6.237,29.466,29.466,0,0,1-12.2,2.222H31.646L31.611,55.068h8.577a29.516,29.516,0,0,1,12.2,2.221,19.958,19.958,0,0,1,7.9,6.239,23,23,0,0,1,3.994,8.8,26.417,26.417,0,0,1,.738,6.049,26.777,26.777,0,0,1-.738,6.1M31.44,133.3a8.18,8.18,0,1,1-8.18-8.183,8.182,8.182,0,0,1,8.18,8.183m-1.821,79.533c0-3.613-2.31-6.025-6.643-6.025H15.588v18.822h3.4v-6.743h3.989c4.333,0,6.643-2.441,6.643-6.054m-3.453.026c0,1.807-1.037,3.031-3.324,3.031H18.986V209.8h3.856c2.286,0,3.324,1.249,3.324,3.055m19.51,12.771-6.618-18.822H35.309l-6.618,18.822h3.456l1.222-3.611h7.5l1.222,3.611h3.589ZM39.8,218.942h-5.37L37.117,211Zm21.981,6.687v-10.3H53.969v2.838h4.494a4.837,4.837,0,0,1-1.223,3.668,3.8,3.8,0,0,1-2.819,1.089,4.306,4.306,0,0,1-3.058-1.2c-1.3-1.356-1.489-3.774-1.489-5.5s0.161-4.063,1.463-5.417a4.433,4.433,0,0,1,3.084-1.276,3.8,3.8,0,0,1,3,1.142,2.932,2.932,0,0,1,.825,1.726h3.506a5.77,5.77,0,0,0-1.726-3.8,7.781,7.781,0,0,0-5.581-2.15,8.114,8.114,0,0,0-5.61,2.2c-2.046,2.045-2.443,4.489-2.443,7.569s0.478,5.605,2.443,7.648a7.218,7.218,0,0,0,5.61,2.095,5.529,5.529,0,0,0,4.732-2.413l0.4,2.068h2.2Zm17.3,0v-3.1H69.093v-5.155h8.8V214.3h-8.8v-4.387h9.994v-3.1H65.668v18.822H79.087Zm18.341,0V206.807H94.056v12.744L86,206.807H82.36v18.822h3.374V212.7L93.9,225.629h3.533Zm18.847-5.482a4.589,4.589,0,0,0-2.709-4.234,4.284,4.284,0,0,0,2.311-3.983,4.886,4.886,0,0,0-2.178-4.089,7.977,7.977,0,0,0-4.361-1.034h-7.493v18.822h7.493a7.9,7.9,0,0,0,5.025-1.273,5.048,5.048,0,0,0,1.912-4.209m-3.878-8.006c0,1.781-1.3,2.339-2.846,2.339h-4.307v-4.729h4.227c1.544,0,2.926.584,2.926,2.39m0.4,7.927c0,1.9-1.729,2.484-3.326,2.484h-4.227v-5.207h4.334c1.808,0,3.219.713,3.219,2.723m20.117,5.561v-3.1h-9.993v-5.155h8.8V214.3h-8.8v-4.387h9.993v-3.1H119.5v18.822h13.419Zm17.758,0-3.454-7.7a5.428,5.428,0,0,0,3.454-5.283c0-3.029-2.046-5.84-6.539-5.84h-7.946v18.822h3.453v-7.116h4.174l3.139,7.116h3.719Zm-3.426-12.982c0,1.779-1.118,2.79-3.059,2.79h-4.575V209.8h4.521a2.887,2.887,0,0,1,3.113,2.844M168,225.629v-10.3h-7.813v2.838h4.5a4.834,4.834,0,0,1-1.224,3.668,3.8,3.8,0,0,1-2.818,1.089,4.3,4.3,0,0,1-3.058-1.2c-1.3-1.356-1.49-3.774-1.49-5.5s0.16-4.063,1.464-5.417a4.427,4.427,0,0,1,3.084-1.276,3.8,3.8,0,0,1,3,1.142,2.961,2.961,0,0,1,.825,1.726h3.506a5.778,5.778,0,0,0-1.728-3.8,7.78,7.78,0,0,0-5.582-2.15,8.106,8.106,0,0,0-5.607,2.2c-2.046,2.045-2.444,4.489-2.444,7.569s0.478,5.605,2.444,7.648a7.212,7.212,0,0,0,5.607,2.095,5.525,5.525,0,0,0,4.733-2.413l0.4,2.068H168ZM30.018,190.2a4.588,4.588,0,0,0-2.709-4.234,4.277,4.277,0,0,0,2.31-3.983,4.887,4.887,0,0,0-2.177-4.089,7.992,7.992,0,0,0-4.36-1.033H15.588v18.822h7.494a7.9,7.9,0,0,0,5.024-1.273,5.049,5.049,0,0,0,1.913-4.21m-3.877-8c0,1.779-1.3,2.338-2.846,2.338H18.986V179.8h4.228c1.543,0,2.926.585,2.926,2.392m0.4,7.927c0,1.9-1.729,2.483-3.325,2.483H18.986V187.4h4.336c1.807,0,3.217.714,3.217,2.724m21.343,5.56-6.619-18.822H37.516L30.9,195.679h3.456l1.223-3.611h7.5l1.223,3.611h3.589Zm-5.875-6.688H36.638l2.685-7.941Zm22.566,6.688-3.453-7.7a5.428,5.428,0,0,0,3.453-5.284c0-3.028-2.046-5.839-6.538-5.839H50.09v18.822h3.453v-7.116h4.175l3.138,7.116h3.718ZM61.148,182.7c0,1.781-1.117,2.791-3.059,2.791H53.515v-5.634h4.521a2.885,2.885,0,0,1,3.112,2.843m21.288,3.558c0-2.6-.266-5.39-2.2-7.382a7.224,7.224,0,0,0-5.29-2.015H67.607v18.822h7.335a7.217,7.217,0,0,0,5.29-2.016c1.939-1.989,2.2-4.805,2.2-7.409m-3.48,0c0,1.727-.026,3.958-1.356,5.286a3.729,3.729,0,0,1-2.659,1.062H71.032V179.933h3.909A3.73,3.73,0,0,1,77.6,181c1.33,1.328,1.356,3.532,1.356,5.258m20.253,9.425v-3.1h-10v-5.153h8.8v-3.078h-8.8v-4.385h10v-3.1H85.788v18.822H99.21Zm17.863,0V176.857h-3.427v7.354h-7.739v-7.354h-3.425v18.822h3.425v-8.2h7.739v8.2h3.427Zm16.586,0v-3.236h-8.746V176.857h-3.425v18.822h12.171Zm15.868,0v-3.1h-9.993v-5.153h8.8v-3.078h-8.8v-4.385h9.993v-3.1H136.109v18.822h13.418Z"/>
</svg>
