<?xml version="1.0" encoding="UTF-8"?>
<svg width="110px" height="41px" viewBox="0 0 110 41" version="1.1" xmlns="http://www.w3.org/2000/svg" xmlns:xlink="http://www.w3.org/1999/xlink">
    <!-- Generator: Sketch 47.1 (45422) - http://www.bohemiancoding.com/sketch -->
    <title>logo</title>
    <desc>Created with Sketch.</desc>
    <defs></defs>
    <g id="Page-1" stroke="none" stroke-width="1" fill="none" fill-rule="evenodd">
        <g id="Why-ipQuants?" transform="translate(-1190.000000, -1215.000000)">
            <g id="Is-ipQuants-Right-fo" transform="translate(0.000000, 775.000000)">
                <g id="1" transform="translate(119.000000, 276.000000)">
                    <g id="Q" transform="translate(720.000000, 0.000000)">
                        <g id="logo" transform="translate(350.000000, 165.000000)">
                            <g id="ipQuants_Logo_300_300_FINAL_4Oct2016" transform="translate(22.000000, 0.000000)">
                                <path d="M27.6718367,20.8596774 L13.0346939,12.5854839 L21.4877551,26.9129032 C24.0236735,25.4758065 26.1591837,23.3854839 27.6718367,20.8596774 Z" id="Shape" fill="#1D335A" fill-rule="nonzero"></path>
                                <ellipse id="Oval" stroke="#FFFFFF" fill="#1D335A" fill-rule="nonzero" cx="12.9902041" cy="12.5854839" rx="12.7240816" ry="12.4548387"></ellipse>
                                <path d="M6.67265306,1.82903226 L19.3522449,23.3419355" id="Shape" stroke="#FFFFFF" fill="#225FAA" fill-rule="nonzero"></path>
                                <path d="M2.22367347,6.48870968 L23.8012245,18.6822581" id="Shape" stroke="#FFFFFF" fill="#225FAA" fill-rule="nonzero"></path>
                                <path d="M23.8012245,6.48870968 L2.22367347,18.6822581" id="Shape" stroke="#FFFFFF" fill="#225FAA" fill-rule="nonzero"></path>
                                <path d="M19.2632653,2.00322581 L6.76163265,23.1677419" id="Shape" stroke="#FFFFFF" fill="#225FAA" fill-rule="nonzero"></path>
                                <g id="Group" transform="translate(4.359184, 3.919355)">
                                    <ellipse id="Oval" fill="#134888" fill-rule="nonzero" cx="8.63102041" cy="8.66612903" rx="8.49755102" ry="8.31774194"></ellipse>
                                    <ellipse id="Oval" stroke="#FFFFFF" cx="8.63102041" cy="8.66612903" rx="8.49755102" ry="8.31774194"></ellipse>
                                </g>
                                <path d="M13.1408046,0.306818182 L13.1408046,24.859942" id="Line-3" stroke="#FFFFFF" stroke-linecap="square"></path>
                                <path d="M0.612068966,12.5795455 L25.6695402,12.5795455" id="Line-4" stroke="#FFFFFF" stroke-linecap="square"></path>
                                <ellipse id="Oval" fill="#FFFFFF" fill-rule="nonzero" cx="12.9902041" cy="12.5854839" rx="4.18204082" ry="4.09354839"></ellipse>
                            </g>
                            <g id="text" transform="translate(1.000000, 0.000000)" fill-rule="nonzero" fill="#1F396C">
                                <path d="M6.4955102,19.3830645 L0.489387755,19.3830645 L0.489387755,18.5403226 C0.667346939,18.5403226 0.889795918,18.4959677 1.0677551,18.4959677 C1.29020408,18.4959677 1.46816327,18.4516129 1.60163265,18.4072581 C1.82408163,18.3185484 2.00204082,18.1854839 2.1355102,18.0080645 C2.26897959,17.8306452 2.31346939,17.5645161 2.31346939,17.2540323 L2.31346939,9.625 C2.31346939,9.35887097 2.26897959,9.09274194 2.1355102,8.87096774 C2.00204082,8.64919355 1.82408163,8.47177419 1.64612245,8.29435484 C1.46816327,8.20564516 1.24571429,8.11693548 0.934285714,8.02822581 C0.622857143,7.93951613 0.355918367,7.89516129 0.0889795918,7.89516129 L0.0889795918,7.09677419 L4.49346939,6.83064516 L4.67142857,7.00806452 L4.67142857,17.1209677 C4.67142857,17.4314516 4.71591837,17.6532258 4.84938776,17.8306452 C4.98285714,18.0080645 5.16081633,18.1854839 5.38326531,18.2741935 C5.56122449,18.3629032 5.73918367,18.4072581 5.91714286,18.4516129 C6.09510204,18.4959677 6.27306122,18.5403226 6.4955102,18.5403226 L6.4955102,19.3830645 Z M4.89387755,1.9516129 C4.89387755,2.43951613 4.71591837,2.83870968 4.4044898,3.19354839 C4.09306122,3.5483871 3.69265306,3.72580645 3.2477551,3.72580645 C2.80285714,3.72580645 2.44693878,3.5483871 2.1355102,3.23790323 C1.82408163,2.92741935 1.64612245,2.52822581 1.64612245,2.08467742 C1.64612245,1.64112903 1.82408163,1.24193548 2.1355102,0.887096774 C2.44693878,0.532258065 2.80285714,0.35483871 3.2477551,0.35483871 C3.73714286,0.35483871 4.13755102,0.532258065 4.4044898,0.842741935 C4.76040816,1.15322581 4.89387755,1.50806452 4.89387755,1.9516129 Z" id="Shape"></path>
                                <path d="M19.3530612,8.42741935 C19.842449,9.00403226 20.2428571,9.71370968 20.5097959,10.4677419 C20.7767347,11.2217742 20.9102041,12.108871 20.9102041,13.1290323 C20.9102041,14.1048387 20.7322449,14.9919355 20.4208163,15.7903226 C20.1093878,16.5887097 19.6644898,17.2983871 19.1306122,17.875 C18.5522449,18.4516129 17.9293878,18.8951613 17.2620408,19.2056452 C16.5946939,19.516129 15.8383673,19.6491935 15.0820408,19.6491935 C14.3257143,19.6491935 13.7028571,19.5604839 13.2579592,19.3830645 C12.8130612,19.2056452 12.3681633,19.0282258 12.1012245,18.8064516 L12.0122449,18.8064516 L12.0122449,22.5322581 C12.0122449,22.8427419 12.0567347,23.0645161 12.1902041,23.2862903 C12.3236735,23.5080645 12.5016327,23.641129 12.7240816,23.7298387 C12.9465306,23.8185484 13.2134694,23.8629032 13.5693878,23.9516129 C13.9253061,24.0403226 14.2367347,24.0846774 14.5036735,24.0846774 L14.5036735,24.9274194 L7.51877551,24.9274194 L7.51877551,24.0846774 C7.78571429,24.0846774 8.05265306,24.0403226 8.27510204,24.0403226 C8.49755102,23.9959677 8.72,23.9516129 8.94244898,23.9072581 C9.20938776,23.8185484 9.38734694,23.6854839 9.47632653,23.4637097 C9.56530612,23.2419355 9.60979592,23.0201613 9.60979592,22.7096774 L9.60979592,9.58064516 C9.60979592,9.31451613 9.56530612,9.09274194 9.43183673,8.87096774 C9.29836735,8.64919355 9.12040816,8.42741935 8.94244898,8.29435484 C8.80897959,8.20564516 8.58653061,8.11693548 8.31959184,8.07258065 C8.05265306,8.02822581 7.78571429,7.98387097 7.51877551,7.98387097 L7.51877551,7.09677419 L11.7453061,6.83064516 L11.9232653,6.96370968 L11.9232653,8.33870968 L12.0122449,8.38306452 C12.4571429,7.89516129 12.9910204,7.4516129 13.6583673,7.14112903 C14.3257143,6.78629032 14.9485714,6.65322581 15.5714286,6.65322581 C16.3277551,6.65322581 17.0395918,6.83064516 17.7069388,7.14112903 C18.3742857,7.4516129 18.9081633,7.89516129 19.3530612,8.42741935 Z M17.3065306,17.3427419 C17.662449,16.8104839 17.884898,16.233871 18.0628571,15.5241935 C18.2408163,14.858871 18.2853061,14.0604839 18.2853061,13.2177419 C18.2853061,12.5967742 18.1963265,11.9758065 18.0628571,11.3104839 C17.9293878,10.6451613 17.7069388,10.1129032 17.44,9.625 C17.1730612,9.13709677 16.7726531,8.73790323 16.3277551,8.42741935 C15.8828571,8.11693548 15.3044898,7.98387097 14.6816327,7.98387097 C14.0587755,7.98387097 13.524898,8.11693548 13.08,8.38306452 C12.635102,8.64919355 12.2791837,8.95967742 11.9677551,9.35887097 L11.9677551,16.6774194 C12.0567347,16.8991935 12.1457143,17.1209677 12.3236735,17.3870968 C12.5016327,17.608871 12.6795918,17.8306452 12.9020408,18.0080645 C13.1689796,18.2298387 13.4359184,18.4072581 13.7473469,18.4959677 C14.0587755,18.6290323 14.4146939,18.6733871 14.8595918,18.6733871 C15.3489796,18.6733871 15.7938776,18.5403226 16.2387755,18.3185484 C16.6391837,18.141129 17.0395918,17.7862903 17.3065306,17.3427419 Z" id="Shape"></path>
                                <path d="M60.9955102,19.1169355 L56.9469388,19.3830645 L56.7689796,19.2056452 L56.7689796,17.6532258 L56.68,17.6532258 C56.457551,17.875 56.235102,18.0967742 56.0126531,18.3185484 C55.7457143,18.5403226 55.4787755,18.7620968 55.1673469,18.983871 C54.8114286,19.2056452 54.4110204,19.3830645 54.055102,19.516129 C53.6991837,19.6491935 53.2097959,19.6935484 52.542449,19.6935484 C51.4302041,19.6935484 50.584898,19.3387097 50.0510204,18.6290323 C49.4726531,17.9193548 49.2057143,16.8548387 49.2057143,15.5241935 L49.2057143,9.58064516 C49.2057143,9.27016129 49.1612245,9.0483871 49.0277551,8.8266129 C48.8942857,8.60483871 48.7608163,8.42741935 48.5383673,8.29435484 C48.404898,8.20564516 48.182449,8.11693548 47.96,8.07258065 C47.737551,8.02822581 47.4706122,7.98387097 47.2481633,7.98387097 L47.2481633,7.14112903 L51.3857143,6.83064516 L51.5636735,7.00806452 L51.5636735,15.6129032 C51.5636735,16.5 51.7861224,17.1653226 52.1865306,17.6532258 C52.5869388,18.141129 53.0763265,18.3185484 53.6546939,18.3185484 C54.0995918,18.3185484 54.5444898,18.2298387 54.9004082,18.0967742 C55.2563265,17.9637097 55.5677551,17.7862903 55.7902041,17.608871 C56.0126531,17.4314516 56.235102,17.2540323 56.3685714,17.0322581 C56.5465306,16.8548387 56.68,16.6330645 56.7689796,16.5 L56.7689796,9.49193548 C56.7689796,9.22580645 56.7244898,8.95967742 56.5910204,8.73790323 C56.457551,8.51612903 56.3240816,8.33870968 56.1016327,8.20564516 C55.9681633,8.11693548 55.7457143,8.02822581 55.4342857,8.02822581 C55.1228571,8.02822581 54.8114286,7.98387097 54.4110204,7.98387097 L54.4110204,7.14112903 L58.9489796,6.83064516 L59.1269388,7.00806452 L59.1269388,16.8548387 C59.1269388,17.1209677 59.1714286,17.3870968 59.304898,17.5645161 C59.4383673,17.7862903 59.5718367,17.9193548 59.7942857,18.0967742 C59.9277551,18.1854839 60.1057143,18.2298387 60.3281633,18.2741935 C60.5506122,18.3185484 60.7730612,18.3185484 61.04,18.3185484 L61.04,19.1169355 L60.9955102,19.1169355 Z" id="Shape"></path>
                                <path d="M74.2534694,19.1169355 C73.8530612,19.25 73.4971429,19.3830645 73.2302041,19.4717742 C72.9187755,19.5604839 72.6073469,19.6048387 72.2069388,19.6048387 C71.5395918,19.6048387 71.0502041,19.4717742 70.6497959,19.1612903 C70.2493878,18.8508065 70.0269388,18.4072581 69.8934694,17.8306452 L69.8044898,17.8306452 C69.2706122,18.4516129 68.6922449,18.8951613 68.024898,19.2056452 C67.4020408,19.516129 66.6457143,19.6935484 65.7559184,19.6935484 C64.8216327,19.6935484 64.0653061,19.4274194 63.442449,18.8508065 C62.8195918,18.2741935 62.5526531,17.5201613 62.5526531,16.6330645 C62.5526531,16.1451613 62.6416327,15.7459677 62.775102,15.3467742 C62.9085714,14.9919355 63.1310204,14.6370968 63.3979592,14.3266129 C63.6204082,14.0604839 63.8873469,13.8387097 64.2432653,13.6612903 C64.5991837,13.483871 64.9106122,13.3064516 65.2220408,13.1733871 C65.5779592,13.0403226 66.3787755,12.7741935 67.5355102,12.375 C68.6922449,11.9758065 69.4485714,11.7096774 69.8934694,11.4879032 L69.8934694,10.2016129 C69.8934694,10.1129032 69.8489796,9.89112903 69.8044898,9.58064516 C69.76,9.27016129 69.6710204,8.95967742 69.4930612,8.69354839 C69.315102,8.38306452 69.0926531,8.11693548 68.7812245,7.89516129 C68.4697959,7.6733871 68.024898,7.54032258 67.4910204,7.54032258 C67.0906122,7.54032258 66.7346939,7.58467742 66.4232653,7.71774194 C66.1118367,7.85080645 65.844898,7.98387097 65.7114286,8.11693548 C65.7114286,8.29435484 65.7559184,8.51612903 65.844898,8.87096774 C65.9338776,9.18145161 65.9783673,9.49193548 65.9783673,9.75806452 C65.9783673,10.0685484 65.844898,10.3346774 65.5779592,10.5564516 C65.3110204,10.7782258 64.955102,10.9112903 64.4657143,10.9112903 C64.0653061,10.9112903 63.7538776,10.7782258 63.5314286,10.4677419 C63.3534694,10.1572581 63.22,9.84677419 63.22,9.44758065 C63.22,9.0483871 63.3534694,8.69354839 63.6204082,8.33870968 C63.8873469,7.98387097 64.2432653,7.6733871 64.6881633,7.40725806 C65.0440816,7.18548387 65.5334694,6.96370968 66.0673469,6.83064516 C66.6012245,6.69758065 67.135102,6.56451613 67.6244898,6.56451613 C68.3363265,6.56451613 68.9591837,6.60887097 69.4485714,6.69758065 C69.982449,6.78629032 70.4718367,7.00806452 70.8722449,7.31854839 C71.3171429,7.62903226 71.6285714,8.02822581 71.8510204,8.56048387 C72.0734694,9.09274194 72.2069388,9.75806452 72.2069388,10.6008065 C72.2069388,11.7983871 72.2069388,12.8629032 72.162449,13.7943548 C72.1179592,14.7258065 72.1179592,15.7459677 72.1179592,16.8104839 C72.1179592,17.1209677 72.162449,17.3870968 72.2959184,17.608871 C72.4293878,17.7862903 72.5628571,17.9637097 72.8297959,18.0967742 C72.9632653,18.1854839 73.1412245,18.2298387 73.4081633,18.2298387 C73.675102,18.2298387 73.9420408,18.2298387 74.2534694,18.2298387 L74.2534694,19.1169355 L74.2534694,19.1169355 Z M69.8934694,12.5080645 C69.1816327,12.7298387 68.5587755,12.9072581 68.024898,13.1290323 C67.4910204,13.3508065 67.0016327,13.5725806 66.5122449,13.8830645 C66.1118367,14.1491935 65.7559184,14.5040323 65.5334694,14.9032258 C65.3110204,15.3024194 65.177551,15.7459677 65.177551,16.2782258 C65.177551,16.9879032 65.3555102,17.4758065 65.7114286,17.8306452 C66.0673469,18.141129 66.5567347,18.3185484 67.0906122,18.3185484 C67.6689796,18.3185484 68.2028571,18.1854839 68.6477551,17.875 C69.0926531,17.5645161 69.4930612,17.2540323 69.8044898,16.8548387 L69.8934694,12.5080645 Z" id="Shape"></path>
                                <path d="M89.2465306,19.3830645 L83.1514286,19.3830645 L83.1514286,18.5403226 C83.3293878,18.5403226 83.5518367,18.4959677 83.7742857,18.4959677 C83.9967347,18.4959677 84.1746939,18.4516129 84.3526531,18.4072581 C84.575102,18.3185484 84.7530612,18.1854839 84.8865306,18.0080645 C85.02,17.8306452 85.0644898,17.5645161 85.0644898,17.2540323 L85.0644898,10.8669355 C85.0644898,9.97983871 84.8420408,9.31451613 84.4416327,8.8266129 C84.0412245,8.33870968 83.5073469,8.11693548 82.9289796,8.11693548 C82.4840816,8.11693548 82.0836735,8.20564516 81.6832653,8.33870968 C81.3273469,8.47177419 80.9714286,8.64919355 80.7044898,8.8266129 C80.437551,9.00403226 80.215102,9.22580645 80.0371429,9.44758065 C79.8591837,9.66935484 79.7702041,9.84677419 79.6812245,9.97983871 L79.6812245,17.1209677 C79.6812245,17.3870968 79.7257143,17.6532258 79.8591837,17.8306452 C79.9926531,18.0080645 80.1706122,18.141129 80.3930612,18.2741935 C80.5710204,18.3629032 80.7489796,18.4072581 80.9714286,18.4516129 C81.1938776,18.4959677 81.3718367,18.5403226 81.5942857,18.5403226 L81.5942857,19.3830645 L75.4991837,19.3830645 L75.4991837,18.5403226 C75.6771429,18.5403226 75.8995918,18.4959677 76.077551,18.4959677 C76.3,18.4959677 76.4779592,18.4516129 76.6114286,18.4072581 C76.8338776,18.3185484 77.0118367,18.1854839 77.1453061,18.0080645 C77.2787755,17.8306452 77.3232653,17.5645161 77.3232653,17.2540323 L77.3232653,9.625 C77.3232653,9.35887097 77.2787755,9.09274194 77.1453061,8.8266129 C77.0118367,8.60483871 76.8338776,8.38306452 76.6559184,8.25 C76.4779592,8.16129032 76.3,8.07258065 76.077551,8.02822581 C75.855102,7.98387097 75.6326531,7.93951613 75.3657143,7.93951613 L75.3657143,7.09677419 L79.5032653,6.83064516 L79.6812245,7.00806452 L79.6812245,8.73790323 L79.7257143,8.73790323 C79.9481633,8.51612903 80.1706122,8.29435484 80.4820408,8.02822581 C80.7934694,7.76209677 81.0604082,7.54032258 81.3273469,7.36290323 C81.6387755,7.14112903 81.9946939,7.00806452 82.4395918,6.875 C82.8844898,6.74193548 83.3293878,6.65322581 83.9077551,6.65322581 C85.1089796,6.65322581 85.9987755,7.00806452 86.5771429,7.76209677 C87.1555102,8.51612903 87.422449,9.49193548 87.422449,10.733871 L87.422449,17.1653226 C87.422449,17.4758065 87.4669388,17.6975806 87.5559184,17.875 C87.644898,18.0524194 87.8228571,18.1854839 88.0897959,18.2741935 C88.3122449,18.3629032 88.4457143,18.4072581 88.6236735,18.4516129 C88.7571429,18.4959677 88.9795918,18.4959677 89.2465306,18.5403226 L89.2465306,19.3830645 L89.2465306,19.3830645 Z" id="Shape"></path>
                                <path d="M98.4114286,18.8064516 C97.877551,19.0282258 97.3436735,19.2056452 96.8542857,19.3830645 C96.364898,19.516129 95.7865306,19.6048387 95.0746939,19.6048387 C94.0514286,19.6048387 93.295102,19.3387097 92.8946939,18.8064516 C92.4497959,18.2741935 92.2718367,17.5645161 92.2718367,16.5887097 L92.2718367,8.25 L90.0473469,8.25 L90.0473469,7.05241935 L92.3608163,7.05241935 L92.3608163,3.19354839 L94.6742857,3.19354839 L94.6742857,7.05241935 L98.2334694,7.05241935 L98.2334694,8.25 L94.6742857,8.25 L94.6742857,15.1693548 C94.6742857,15.7016129 94.6742857,16.1008065 94.7187755,16.4556452 C94.7632653,16.8104839 94.8522449,17.1209677 94.9857143,17.3870968 C95.1191837,17.608871 95.3416327,17.8306452 95.6085714,17.9193548 C95.8755102,18.0080645 96.2314286,18.0967742 96.6763265,18.0967742 C96.8987755,18.0967742 97.2102041,18.0967742 97.6106122,18.0524194 C98.0110204,18.0080645 98.322449,17.9637097 98.4559184,17.9193548 L98.4559184,18.8064516 L98.4114286,18.8064516 Z" id="Shape"></path>
                                <path d="M107.843265,13.3064516 C108.199184,13.6169355 108.466122,13.9717742 108.644082,14.3709677 C108.822041,14.7701613 108.91102,15.2580645 108.91102,15.8346774 C108.91102,16.9879032 108.466122,17.9193548 107.620816,18.6290323 C106.77551,19.3387097 105.663265,19.7379032 104.284082,19.7379032 C103.572245,19.7379032 102.904898,19.6048387 102.282041,19.3387097 C101.659184,19.0725806 101.258776,18.8508065 100.991837,18.6290323 L100.724898,19.4274194 L99.7906122,19.4274194 L99.6571429,15.0806452 L100.546939,15.0806452 C100.635918,15.391129 100.769388,15.7903226 100.991837,16.233871 C101.214286,16.6774194 101.481224,17.0766129 101.792653,17.4314516 C102.104082,17.7862903 102.50449,18.0967742 102.949388,18.3629032 C103.394286,18.6290323 103.928163,18.7620968 104.506531,18.7620968 C105.307347,18.7620968 105.930204,18.5846774 106.375102,18.2298387 C106.82,17.875 107.042449,17.3427419 107.042449,16.6774194 C107.042449,16.3225806 106.953469,16.0120968 106.82,15.7459677 C106.686531,15.4798387 106.464082,15.2580645 106.197143,15.0806452 C105.930204,14.9032258 105.574286,14.7258065 105.173878,14.5483871 C104.773469,14.4153226 104.328571,14.2379032 103.839184,14.1048387 C103.438776,13.9717742 102.993878,13.8387097 102.50449,13.6169355 C102.015102,13.3951613 101.614694,13.1733871 101.258776,12.9072581 C100.902857,12.5967742 100.591429,12.2419355 100.36898,11.8427419 C100.146531,11.4435484 100.013061,10.9112903 100.013061,10.3346774 C100.013061,9.31451613 100.36898,8.47177419 101.125306,7.76209677 C101.881633,7.05241935 102.904898,6.69758065 104.150612,6.69758065 C104.64,6.69758065 105.129388,6.74193548 105.663265,6.875 C106.152653,7.00806452 106.597551,7.14112903 106.90898,7.31854839 L107.220408,6.65322581 L108.110204,6.65322581 L108.288163,10.6451613 L107.398367,10.6451613 C107.220408,9.75806452 106.82,9.0483871 106.241633,8.47177419 C105.663265,7.89516129 104.951429,7.62903226 104.106122,7.62903226 C103.438776,7.62903226 102.860408,7.80645161 102.46,8.16129032 C102.059592,8.51612903 101.881633,8.91532258 101.881633,9.40322581 C101.881633,9.75806452 101.926122,10.1129032 102.059592,10.3346774 C102.193061,10.6008065 102.37102,10.7782258 102.637959,10.9556452 C102.904898,11.1330645 103.216327,11.266129 103.572245,11.4435484 C103.972653,11.5766129 104.417551,11.7540323 104.995918,11.9314516 C105.529796,12.108871 106.063673,12.3306452 106.553061,12.5524194 C107.131429,12.7298387 107.531837,12.9959677 107.843265,13.3064516 Z" id="Shape"></path>
                            </g>
                            <text id="Innovations.-Discove" font-family="Lato-Bold, Lato" font-size="10" font-weight="bold" fill="#FF7227">
                                <tspan x="0.8325" y="39">Innovations. Discovered.</tspan>
                            </text>
                        </g>
                    </g>
                </g>
            </g>
        </g>
    </g>
</svg>