<?xml version="1.0" encoding="utf-8"?>
<!-- Generator: Adobe Illustrator 24.1.0, SVG Export Plug-In . SVG Version: 6.00 Build 0)  -->
<svg version="1.1" id="Layer_1" xmlns="http://www.w3.org/2000/svg" xmlns:xlink="http://www.w3.org/1999/xlink" x="0px" y="0px"
	 viewBox="0 0 460 448.5" style="enable-background:new 0 0 460 448.5;" xml:space="preserve">
<g id="comp_x5F_142-github">
	<g>
		<path d="M153.9,361.1c0,1.9-2.1,3.3-4.8,3.3c-3.1,0.3-5.2-1.2-5.2-3.3c0-1.9,2.1-3.3,4.8-3.3C151.4,357.5,153.9,359,153.9,361.1z
			 M125,357c-0.6,1.9,1.2,4,4,4.5c2.4,0.9,5.2,0,5.8-1.9c0.6-1.9-1.2-4-4-4.8C128.4,354.2,125.7,355.1,125,357L125,357z M166,355.4
			c-2.7,0.6-4.5,2.4-4.3,4.5c0.3,1.9,2.7,3.1,5.5,2.4c2.7-0.6,4.5-2.4,4.3-4.3C171.2,356.3,168.7,355.1,166,355.4z M227,0
			C98.4,0,0,97.7,0,226.3c0,102.9,64.7,190.9,157.2,221.8c11.9,2.1,16-5.2,16-11.2c0-5.8-0.3-37.5-0.3-56.9c0,0-64.9,13.9-78.6-27.6
			c0,0-10.6-27-25.8-33.9c0,0-21.2-14.6,1.5-14.3c0,0,23.1,1.9,35.8,23.9c20.3,35.8,54.3,25.5,67.6,19.4
			c2.1-14.8,8.2-25.1,14.8-31.3c-51.8-5.8-104.1-13.3-104.1-102.5c0-25.5,7-38.3,21.9-54.6c-2.4-6-10.3-30.9,2.4-63
			c19.4-6,64,25,64,25c18.6-5.2,38.5-7.9,58.2-7.9c19.8,0,39.7,2.7,58.2,7.9c0,0,44.6-31.2,64-25c12.7,32.2,4.8,56.9,2.4,63
			c14.8,16.4,23.9,29.2,23.9,54.6c0,89.5-54.6,96.6-106.5,102.5c8.5,7.3,15.8,21.2,15.8,43c0,31.3-0.3,69.9-0.3,77.5
			c0,6,4.3,13.4,16,11.2C397.1,417.2,460,329.1,460,226.3C460,97.7,355.7,0,227,0z M90.1,319.9c-1.2,0.9-0.9,3.1,0.6,4.8
			c1.5,1.5,3.6,2.1,4.8,0.9c1.2-0.9,0.9-3.1-0.6-4.8C93.5,319.3,91.4,318.7,90.1,319.9z M80.1,312.4c-0.6,1.2,0.3,2.7,2.1,3.6
			c1.5,0.9,3.3,0.6,4-0.6c0.6-1.2-0.3-2.7-2.1-3.6C82.3,311.1,80.8,311.4,80.1,312.4z M110.2,345.4c-1.5,1.2-0.9,4,1.2,5.8
			c2.1,2.1,4.8,2.4,6,0.9c1.2-1.2,0.6-4-1.2-5.7C114.2,344.2,111.4,343.9,110.2,345.4z M99.6,331.7c-1.5,0.9-1.5,3.3,0,5.5
			c1.5,2.1,4,3.1,5.2,2.1c1.5-1.2,1.5-3.6,0-5.8C103.5,331.5,101.1,330.5,99.6,331.7L99.6,331.7z"/>
	</g>
</g>
<g id="Layer_1_1_">
</g>
</svg>
