<?xml version="1.0" encoding="utf-8"?>
<!-- Generator: Adobe Illustrator 24.1.0, SVG Export Plug-In . SVG Version: 6.00 Build 0)  -->
<svg version="1.1" id="Layer_1" xmlns="http://www.w3.org/2000/svg" xmlns:xlink="http://www.w3.org/1999/xlink" x="0px" y="0px"
	 viewBox="0 0 460 345.9" style="enable-background:new 0 0 460 345.9;" xml:space="preserve">
<g id="comp_x5F_147-gmail">
	<g>
		<polygon points="371.9,0 88.1,0 230,112.4 		"/>
		<polygon points="76.5,114.9 76.5,345.9 383.5,345.9 383.5,114.9 230,233.3 		"/>
		<path d="M416.9,0h-14.4L230,136.6L57.5,0H43.1C19.3,0,0,19.4,0,43.2v259.4c0,23.9,19.3,43.2,43.1,43.2h14.4V76.3l172.5,133
			L402.5,76.2v269.7h14.4c23.8,0,43.1-19.4,43.1-43.2V43.2C460,19.4,440.7,0,416.9,0z"/>
	</g>
</g>
<g id="Layer_1_1_">
</g>
</svg>
