<?xml version="1.0" encoding="utf-8"?>
<!-- Generator: Adobe Illustrator 24.1.0, SVG Export Plug-In . SVG Version: 6.00 Build 0)  -->
<svg version="1.1" id="Layer_1" xmlns="http://www.w3.org/2000/svg" xmlns:xlink="http://www.w3.org/1999/xlink" x="0px" y="0px"
	 viewBox="0 0 443.6 352" style="enable-background:new 0 0 443.6 352;" xml:space="preserve">
<g id="comp_x5F_211-medium">
	<g>
		<path d="M52.6,71.8C53.1,66.4,51,61,47,57.3L5.6,7.4V0h128.6l99.4,218L321,0h122.6v7.4l-35.4,33.9c-3,2.3-4.6,6.1-3.9,9.9v249.5
			c-0.6,3.8,0.9,7.6,3.9,9.9l34.6,33.9v7.4h-174v-7.4l35.9-34.8c3.5-3.5,3.5-4.6,3.5-9.9V98.3l-99.7,253H195L79.1,98.3v169.6
			c-1,7.2,1.4,14.3,6.4,19.4l46.6,56.5v7.4H0v-7.3l46.6-56.6c5-5.1,7.2-12.4,6-19.4V71.8z"/>
	</g>
</g>
<g id="Layer_1_1_">
</g>
</svg>
