<?xml version="1.0" encoding="UTF-8"?>
<svg width="18px" height="24px" viewBox="0 0 18 24" version="1.1" xmlns="http://www.w3.org/2000/svg" xmlns:xlink="http://www.w3.org/1999/xlink">
    <!-- Generator: sketchtool 50.2 (55047) - http://www.bohemiancoding.com/sketch -->
    <title>7EA5F283-869B-495C-82D8-8DF99266D176</title>
    <desc>Created with sketchtool.</desc>
    <defs></defs>
    <g id="Page-1" stroke="none" stroke-width="1" fill="none" fill-rule="evenodd">
        <g id="Contact-Us-page" transform="translate(-941.000000, -611.000000)" fill="#1F396C">
            <g id="Contact-info" transform="translate(941.000000, 548.000000)">
                <g id="address" transform="translate(0.000000, 58.000000)">
                    <g id="3-Pointer" transform="translate(0.000000, 5.000000)">
                        <path d="M8.8335,4.665 C6.5555,4.665 4.7085,6.515 4.7085,8.79 C4.7085,11.07 6.5555,12.915 8.8335,12.915 C11.1115,12.915 12.9585,11.07 12.9585,8.79 C12.9585,6.515 11.1115,4.665 8.8335,4.665 Z M8.8335,6.165 C10.281,6.165 11.4585,7.345 11.4585,8.79 C11.4585,10.24 10.281,11.415 8.8335,11.415 C7.386,11.415 6.2085,10.24 6.2085,8.79 C6.2085,7.345 7.386,6.165 8.8335,6.165 Z" id="Fill-375"></path>
                        <path d="M8.8335,2 C5.0885,2 2.0415,5.05 2.0415,8.79 C2.0415,10.085 2.4055,11.34 3.094,12.425 L8.8335,21.175 L14.577,12.42 C15.263,11.335 15.625,10.085 15.625,8.79 C15.625,5.05 12.5785,2 8.8335,2 Z M8.8335,24 C8.4965,24 8.182,23.83 7.9975,23.55 L1.4135,13.51 C0.5135,12.095 0.0415,10.465 0.0415,8.79 C0.0415,3.945 3.9855,0 8.8335,0 C13.6815,0 17.625,3.945 17.625,8.79 C17.625,10.465 17.1535,12.095 16.261,13.5 C16.259,13.5 16.256,13.505 16.2535,13.51 L9.6695,23.55 C9.485,23.83 9.1705,24 8.8335,24 Z" id="Fill-376"></path>
                    </g>
                </g>
            </g>
        </g>
    </g>
</svg>