<?xml version="1.0" encoding="UTF-8"?>
<svg width="32px" height="30px" viewBox="0 0 32 30" version="1.1" xmlns="http://www.w3.org/2000/svg" xmlns:xlink="http://www.w3.org/1999/xlink">
    <!-- Generator: Sketch 57.1 (83088) - https://sketch.com -->
    <title>"</title>
    <desc>Created with Sketch.</desc>
    <g id="Page-1" stroke="none" stroke-width="1" fill="none" fill-rule="evenodd">
        <g id="QuantView-SI" transform="translate(-704.000000, -588.000000)" fill="#F89406" fill-rule="nonzero">
            <g id="&quot;" transform="translate(704.000000, 588.000000)">
                <path d="M3.49316308,29.657 C1.98915556,27.1816543 0.970832408,24.5966801 0.438163078,21.902 C-0.0945062524,19.2073199 -0.141505782,16.5596797 0.297163078,13.959 C0.735831938,11.3583203 1.65232277,8.85951198 3.04666308,6.4625 C4.44100338,4.06548801 6.31315133,1.91134289 8.66316308,0 L12.2821631,2.209 C12.9088329,2.61633537 13.1908301,3.11766369 13.1281631,3.713 C13.0654961,4.30833631 12.8618315,4.77833161 12.5171631,5.123 C11.8591598,5.90633725 11.2324994,6.94032691 10.6371631,8.225 C10.0418268,9.50967309 9.62666425,10.950992 9.39166308,12.549 C9.1566619,14.147008 9.18016167,15.8546576 9.46216308,17.672 C9.74416449,19.4893424 10.4491574,21.3066576 11.5771631,23.124 C12.1411659,24.0326712 12.297831,24.82383 12.0471631,25.4975 C11.7964952,26.17117 11.2795003,26.6489986 10.4961631,26.931 L3.49316308,29.657 Z" id="‘"></path>
                <path d="M21.4931631,29.657 C19.9891556,27.1816543 18.9708324,24.5966801 18.4381631,21.902 C17.9054937,19.2073199 17.8584942,16.5596797 18.2971631,13.959 C18.7358319,11.3583203 19.6523228,8.85951198 21.0466631,6.4625 C22.4410034,4.06548801 24.3131513,1.91134289 26.6631631,0 L30.2821631,2.209 C30.9088329,2.61633537 31.1908301,3.11766369 31.1281631,3.713 C31.0654961,4.30833631 30.8618315,4.77833161 30.5171631,5.123 C29.8591598,5.90633725 29.2324994,6.94032691 28.6371631,8.225 C28.0418268,9.50967309 27.6266643,10.950992 27.3916631,12.549 C27.1566619,14.147008 27.1801617,15.8546576 27.4621631,17.672 C27.7441645,19.4893424 28.4491574,21.3066576 29.5771631,23.124 C30.1411659,24.0326712 30.297831,24.82383 30.0471631,25.4975 C29.7964952,26.17117 29.2795003,26.6489986 28.4961631,26.931 L21.4931631,29.657 Z" id="‘-copy"></path>
            </g>
        </g>
    </g>
</svg>