<?xml version="1.0" encoding="utf-8"?>
<!-- Generator: Adobe Illustrator 24.1.0, SVG Export Plug-In . SVG Version: 6.00 Build 0)  -->
<svg version="1.1" id="Layer_1" xmlns="http://www.w3.org/2000/svg" xmlns:xlink="http://www.w3.org/1999/xlink" x="0px" y="0px"
	 viewBox="0 0 458.8 460" style="enable-background:new 0 0 458.8 460;" xml:space="preserve">
<g id="comp_x5F_201-linkedin">
	<g>
		<rect y="143.7" width="102.6" height="316.2"/>
		<path d="M382,147.5c-1.1-0.3-2.1-0.7-3.3-1c-1.4-0.3-2.8-0.6-4.2-0.8c-5.4-1.1-11.4-1.9-18.4-1.9c-59.8,0-97.7,43.6-110.2,60.5
			v-60.5H143.4V460H246V287.5c0,0,77.5-108.3,110.2-28.8V460h102.6V246.6C458.8,198.8,426.1,159,382,147.5z"/>
		<path d="M50.2,100.6c27.7,0,50.2-22.5,50.2-50.3C100.4,22.5,77.9,0,50.2,0C22.5,0,0,22.5,0,50.3C0,78.1,22.5,100.6,50.2,100.6z"/>
	</g>
</g>
<g id="Layer_1_1_">
</g>
</svg>
