<?xml version="1.0" encoding="utf-8"?>
<!-- Generator: Adobe Illustrator 24.1.0, SVG Export Plug-In . SVG Version: 6.00 Build 0)  -->
<svg version="1.1" id="Layer_1" xmlns="http://www.w3.org/2000/svg" xmlns:xlink="http://www.w3.org/1999/xlink" x="0px" y="0px"
	 viewBox="0 0 417.2 460" style="enable-background:new 0 0 417.2 460;" xml:space="preserve">
<g id="comp_x5F_160-hackerrank">
	<g>
		<path d="M407.4,115C394.4,92.6,234.6,0,208.6,0C182.6,0,22.7,92.4,9.7,115c-12.9,22.6-13,207.4,0,230c13,22.6,172.8,115,198.8,115
			c26,0,185.8-92.5,198.9-115C420.4,322.5,420.4,137.4,407.4,115z M262.5,372.1c-3.6,0-36.8-32.1-34.1-34.8
			c0.8-0.8,5.6-1.3,15.8-1.6c0-23.6,0.5-61.6,0.8-77.6c0-1.8-0.4-3.1-0.4-5.3h-71.8c0,6.4-0.4,32.5,1.2,65.5
			c0.2,4.1-1.4,5.4-5.2,5.3c-9.1,0-18.2-0.1-27.3-0.1c-3.7,0-5.3-1.4-5.2-5.5c0.8-30,2.7-75.5-0.1-191.1v-2.8
			c-8.7-0.3-14.7-0.9-15.5-1.7c-2.6-2.6,31-34.8,34.6-34.8c3.6,0,37,32.1,34.4,34.8c-0.8,0.8-7.1,1.3-15.1,1.7v2.8
			c-2.2,23.1-1.8,71.5-2.4,94.7h72.1c0-4.1,0.4-31.2-1.1-75.1c-0.1-3,0.9-4.6,3.8-4.7c9.9-0.1,19.9-0.1,29.9-0.1
			c3.1,0,4.1,1.5,4,4.8c-3.3,171.9-0.6,159.9-0.6,189c8,0.3,15.1,0.9,15.9,1.7C298.8,340,266,372.1,262.5,372.1L262.5,372.1z"/>
	</g>
</g>
<g id="Layer_1_1_">
</g>
</svg>
