<?xml version="1.0" standalone="no"?><!DOCTYPE svg PUBLIC "-//W3C//DTD SVG 1.1//EN" "http://www.w3.org/Graphics/SVG/1.1/DTD/svg11.dtd"><svg xmlns:xlink="http://www.w3.org/1999/xlink" version="1.1" class="highcharts-root" style="font-family:&quot;Lucida Grande&quot;, &quot;Lucida Sans Unicode&quot;, Arial, Helvetica, sans-serif;font-size:12px;" xmlns="http://www.w3.org/2000/svg" width="600" height="400" viewBox="0 0 600 400"><desc>Created with Highstock 7.0.2</desc><defs><clipPath id="highcharts-18bjl1l-338"><rect x="0" y="0" width="600" height="400" fill="none"></rect></clipPath><clipPath id="highcharts-18bjl1l-340"><rect x="10" y="61" width="580" height="324" fill="none"></rect></clipPath></defs><rect fill="#ffffff" class="highcharts-background" x="0" y="0" width="600" height="400" rx="0" ry="0"></rect><g stroke-linejoin="round" class="highcharts-3d-frame highcharts-3d-frame-bottom" data-z-index="-1000"><path fill="none" d="M 34.582284117121276 360.37304473294625 L 564.5056275121472 360.37304473294625 L 557.5126018586966 293.32399167486517 L 41.59942365213544 293.32399167486517 Z" visibility="hidden"></path><path fill="none" d="M 42.3525128052857 293.36082744592534 L 557.6474871947144 293.36082744592534 L 564.5767647441212 359.7648730790786 L 35.42323525587875 359.7648730790786 Z" visibility="visible"></path><path fill="none" d="M 34.582284117121276 360.37304473294625 L 41.59942365213544 293.32399167486517 L 42.3525128052857 293.36082744592534 L 35.42323525587875 359.7648730790786 Z" visibility="hidden"></path><path fill="none" d="M 557.5126018586966 293.32399167486517 L 564.5056275121472 360.37304473294625 L 564.5767647441212 359.7648730790786 L 557.6474871947144 293.36082744592534 Z" visibility="hidden"></path><path fill="none" d="M 564.5056275121472 360.37304473294625 L 34.582284117121276 360.37304473294625 L 35.42323525587875 359.7648730790786 L 564.5767647441212 359.7648730790786 Z" visibility="visible"></path><path fill="none" d="M 41.59942365213544 293.32399167486517 L 557.5126018586966 293.32399167486517 L 557.6474871947144 293.36082744592534 L 42.3525128052857 293.36082744592534 Z" visibility="hidden"></path></g><g stroke-linejoin="round" class="highcharts-3d-frame highcharts-3d-frame-left" data-z-index="-1000"><path fill="none" d="M 34.582284117121276 360.37304473294625 L 35.42323525587875 359.7648730790786 L 42.3525128052857 293.36082744592534 L 41.59942365213544 293.32399167486517 Z" visibility="hidden"></path><path fill="none" d="M 17.572439189802537 76.82311871707702 L 18.462431889913887 77.46775794236135 L 10.16787440772913 143.84988524777702 L 9.168453284997213 143.84988524777702 Z" visibility="visible"></path><path fill="none" d="M 41.59942365213544 293.32399167486517 L 17.572439189802537 76.82311871707702 L 9.168453284997213 143.84988524777702 L 34.582284117121276 360.37304473294625 Z" visibility="hidden"></path><path fill="none" d="M 18.462431889913887 77.46775794236135 L 42.3525128052857 293.36082744592534 L 35.42323525587875 359.7648730790786 L 10.16787440772913 143.84988524777702 Z" visibility="visible"></path><path fill="none" d="M 34.582284117121276 360.37304473294625 L 9.168453284997213 143.84988524777702 L 10.16787440772913 143.84988524777702 L 35.42323525587875 359.7648730790786 Z" visibility="visible"></path><path fill="none" d="M 17.572439189802537 76.82311871707702 L 41.59942365213544 293.32399167486517 L 42.3525128052857 293.36082744592534 L 18.462431889913887 77.46775794236135 Z" visibility="hidden"></path></g><g stroke-linejoin="round" class="highcharts-3d-frame highcharts-3d-frame-right" data-z-index="-1000"><path fill="none" d="M 557.5126018586966 293.32399167486517 L 557.6474871947144 293.36082744592534 L 564.5767647441212 359.7648730790786 L 564.5056275121472 360.37304473294625 Z" visibility="hidden"></path><path fill="none" d="M 589.8321255922708 143.84988524777702 L 589.8321255922708 143.84988524777702 L 581.5375681100861 77.46775794236135 L 581.4570193641143 76.82311871707702 Z" visibility="hidden"></path><path fill="none" d="M 589.8321255922708 143.84988524777702 L 564.5767647441212 359.7648730790786 L 557.6474871947144 293.36082744592534 L 581.5375681100861 77.46775794236135 Z" visibility="hidden"></path><path fill="none" d="M 564.5056275121472 360.37304473294625 L 589.8321255922708 143.84988524777702 L 581.4570193641143 76.82311871707702 L 557.5126018586966 293.32399167486517 Z" visibility="hidden"></path><path fill="none" d="M 589.8321255922708 143.84988524777702 L 564.5056275121472 360.37304473294625 L 564.5767647441212 359.7648730790786 L 589.8321255922708 143.84988524777702 Z" visibility="hidden"></path><path fill="none" d="M 557.5126018586966 293.32399167486517 L 581.4570193641143 76.82311871707702 L 581.5375681100861 77.46775794236135 L 557.6474871947144 293.36082744592534 Z" visibility="hidden"></path></g><g stroke-linejoin="round" class="highcharts-3d-frame highcharts-3d-frame-back" data-z-index="-1000"><path fill="none" d="M 557.5126018586966 293.32399167486517 L 41.59942365213544 293.32399167486517 L 42.3525128052857 293.36082744592534 L 557.6474871947144 293.36082744592534 Z" visibility="hidden"></path><path fill="none" d="M 17.572439189802537 76.82311871707702 L 581.4570193641143 76.82311871707702 L 581.5375681100861 77.46775794236135 L 18.462431889913887 77.46775794236135 Z" visibility="visible"></path><path fill="none" d="M 41.59942365213544 293.32399167486517 L 17.572439189802537 76.82311871707702 L 18.462431889913887 77.46775794236135 L 42.3525128052857 293.36082744592534 Z" visibility="hidden"></path><path fill="none" d="M 581.4570193641143 76.82311871707702 L 557.5126018586966 293.32399167486517 L 557.6474871947144 293.36082744592534 L 581.5375681100861 77.46775794236135 Z" visibility="hidden"></path><path fill="none" d="M 18.462431889913887 77.46775794236135 L 581.5375681100861 77.46775794236135 L 557.6474871947144 293.36082744592534 L 42.3525128052857 293.36082744592534 Z" visibility="visible"></path><path fill="none" d="M 41.59942365213544 293.32399167486517 L 557.5126018586966 293.32399167486517 L 581.4570193641143 76.82311871707702 L 17.572439189802537 76.82311871707702 Z" visibility="hidden"></path></g><rect fill="#ffffff" class="highcharts-plot-background" x="10" y="61" width="580" height="324"></rect><g class="highcharts-pane-group" data-z-index="0"></g><rect fill="none" class="highcharts-plot-border" data-z-index="1" x="10" y="61" width="580" height="324"></rect><g class="highcharts-series-group" data-z-index="3"><g data-z-index="0.1" class="highcharts-series highcharts-series-0 highcharts-pie-series " transform="translate(10,61) scale(1 1)"><path fill="rgb(99,156,211)" d="M 158.34883267705197 108.27863487165862 L 158.34883267705197 126.84018787780549 L 290 180.56155300614688 L 290 162 Z" data-z-index="20.163647305236008" transform="translate(0,0)" class="0 highcharts-3d-side highcharts-point highcharts-color-0"></path><path fill="rgb(114,170,49)" d="M 274.16167678447806 55.10484688789519 L 274.16167678447806 73.66639989404206 L 290 180.56155300614688 L 290 162 Z" data-z-index="39.49905808426557" transform="translate(0,0)" class="0 highcharts-3d-side highcharts-point highcharts-color-2"></path><path fill="rgb(114,170,49)" d="M 289.9393549831361 54.5197778142836 L 289.9393549831361 73.08133082043047 L 290 180.56155300614688 L 290 162 Z" data-z-index="10334.509058084312" transform="translate(0,0)" class="0 highcharts-3d-side highcharts-point highcharts-color-2"></path><path fill="rgb(230,62,9)" d="M 158.34959241846607 108.27770396001306 L 158.34959241846607 126.83925696615992 L 290 180.56155300614688 L 290 162 Z" data-z-index="10335.499058084275" transform="translate(0,0)" class="0 highcharts-3d-side highcharts-point highcharts-color-1"></path><path fill="rgb(114,170,49)" d="M 274.16167678447806 55.10484688789519 C 279.6889096743536 54.69537041282291 284.3818698981669 54.5213457017044 289.9393549831361 54.5197778142836 L 289.9393549831361 73.08133082043047 C 284.3818698981669 73.08289870785127 279.6889096743536 73.25692341896978 274.16167678447806 73.66639989404206 Z" data-z-index="10438.898038469002" transform="translate(0,0)" class="0 highcharts-3d-side highcharts-point highcharts-color-2"></path><path fill="rgb(114,170,49)" d="M 290 162 C 290 162 290 162 290 162 L 290 180.56155300614688 C 290 180.56155300614688 290 180.56155300614688 290 180.56155300614688 Z" data-z-index="10438.898038469002" transform="translate(0,0)" class="0 highcharts-3d-side highcharts-point highcharts-color-2"></path><path fill="rgb(230,62,9)" d="M 274.1601650595172 55.104958887097425 L 274.1601650595172 73.66651189324429 L 290 180.56155300614688 L 290 162 Z" data-z-index="103691.50905808427" transform="translate(0,0)" class="0 highcharts-3d-side highcharts-point highcharts-color-1"></path><path fill="rgb(99,156,211)" d="M 289.9690416730383 54.519771488933856 L 289.9690416730383 73.08132449508072 L 290 180.56155300614688 L 290 162 Z" data-z-index="103692.49905808432" transform="translate(0,0)" class="0 highcharts-3d-side highcharts-point highcharts-color-0"></path><path fill="rgb(230,62,9)" d="M 158.34959241846607 108.27770396001306 C 183.53910854385717 77.4133300488439 224.03880837301963 58.81848015357345 274.1601650595172 55.104958887097425 L 274.1601650595172 73.66651189324429 C 224.03880837301963 77.38003315972031 183.53910854385717 95.97488305499077 158.34959241846607 126.83925696615992 Z" data-z-index="104738.89803846896" transform="translate(0,0)" class="0 highcharts-3d-side highcharts-point highcharts-color-1"></path><path fill="rgb(230,62,9)" d="M 290 162 C 290 162 290 162 290 162 L 290 180.56155300614688 C 290 180.56155300614688 290 180.56155300614688 290 180.56155300614688 Z" data-z-index="104738.89803846896" transform="translate(0,0)" class="0 highcharts-3d-side highcharts-point highcharts-color-1"></path><path fill="rgb(99,156,211)" d="M 442 162 C 442 221.35969234619304 373.9472819742806 269.48023074035524 290 269.48023074035524 C 206.05271802571937 269.48023074035524 138 221.35969234619304 138 162 L 138 180.56155300614688 C 138 160.78260080989537 144.36788119296202 143.9712546216298 158.34883267705197 126.84018787780549 L 158.34883267705197 108.27863487165862 C 144.36788119296202 125.40970161548294 138 142.2210478037485 138 162 L 138 180.56155300614688 C 138 239.92124535233992 206.05271802571937 288.0417837465021 290 288.0417837465021 C 373.9472819742806 288.0417837465021 442 239.92124535233992 442 180.56155300614688 Z" data-z-index="261779.13267948964" transform="translate(0,0)" class="0 highcharts-3d-side highcharts-point highcharts-color-0"></path><path fill="rgb(99,156,211)" d="M 290 162 C 290 162 290 162 290 162 C 290 162 290 162 290 162 C 290 162 290 162 290 162 C 290 162 290 162 290 162 L 290 180.56155300614688 C 290 180.56155300614688 290 180.56155300614688 290 180.56155300614688 C 290 180.56155300614688 290 180.56155300614688 290 180.56155300614688 C 290 180.56155300614688 290 180.56155300614688 290 180.56155300614688 C 290 180.56155300614688 290 180.56155300614688 290 180.56155300614688 Z" data-z-index="261779.13267948964" transform="translate(0,0)" class="0 highcharts-3d-side highcharts-point highcharts-color-0"></path><g data-z-index="31416026.53589793" stroke="#7cb5ec" stroke-width="1" stroke-linejoin="round"><path fill="#7cb5ec" d="M 289.9690416730383 54.519771488933856 C 373.91632190613586 54.50768151022335 441.98289903544793 102.61841804208052 441.99999684730915 161.9781091570712 C 442.01709465917037 221.33780027206188 373.97823856005925 269.4681385323556 290.0309583269617 269.4802285110661 C 206.08367809386414 269.4923184897766 138.01710096455204 221.38158195791948 138.00000315269085 162.02189084292877 C 137.99430385764475 142.235242337532 144.36244068926308 125.41636794517392 158.34883267705197 108.27863487165862 L 290 162 C 290 162 290 162 290 162 C 290 162 290 162 290 162 C 290 162 290 162 290 162 C 290 162 290 162 290 162 Z" data-z-index="314160.2653589793" transform="translate(0,0)" class="highcharts-point highcharts-color-0"></path></g><g data-z-index="31416026.53589793" stroke="#ff5722" stroke-width="1" stroke-linejoin="round"><path fill="#ff5722" d="M 158.34959241846607 108.27770396001306 C 183.53910854385717 77.4133300488439 224.03880837301963 58.81848015357345 274.1601650595172 55.104958887097425 L 290 162 C 290 162 290 162 290 162 Z" data-z-index="314160.2653589793" transform="translate(0,0)" class="highcharts-point highcharts-color-1"></path></g><g data-z-index="31416026.53589793" stroke="#8bc34a" stroke-width="1" stroke-linejoin="round"><path fill="#8bc34a" d="M 274.16167678447806 55.10484688789519 C 279.6889096743536 54.69537041282291 284.3818698981669 54.5213457017044 289.9393549831361 54.5197778142836 L 290 162 C 290 162 290 162 290 162 Z" data-z-index="314160.2653589793" transform="translate(0,0)" class="highcharts-point highcharts-color-2"></path></g></g><g data-z-index="0.1" class="highcharts-markers highcharts-series-0 highcharts-pie-series " transform="translate(10,61) scale(1 1)"></g></g><text x="300" text-anchor="middle" class="highcharts-title" data-z-index="4" style="color:#333333;font-size:18px;fill:#333333;" y="24"><tspan>Appeal Outcome - Chairperson Moufang</tspan></text><text x="300" text-anchor="middle" class="highcharts-subtitle" data-z-index="4" style="color:#666666;font-family:Default;font-size:12px;font-weight:normal;font-style:normal;fill:#666666;" y="45"><tspan>Examination Appeal Outcomes / Chairperson: Moufang / Keywords: non-technical</tspan></text><g data-z-index="6" class="highcharts-data-labels highcharts-series-0 highcharts-pie-series " visibility="visible" transform="translate(10,61) scale(1 1)"><path fill="none" class="highcharts-data-label-connector highcharts-color-0" stroke="#7cb5ec" stroke-width="1" d="M 432.6493453719379 281.0657705584479 C 427.6493453719379 281.0657705584479 371.99999999999994 265.477313290328 368.99999999999994 260.2811608676214 L 365.99999999999994 255.08500844491476"></path><path fill="none" class="highcharts-data-label-connector highcharts-color-1" stroke="#ff5722" stroke-width="1" d="M 146.5512305952013 43.86474594644966 C 151.5512305952013 43.86474594644966 200.67919825753575 61.797136306073625 203.9470324676259 66.82915971374618 L 207.21486667771603 71.86118312141873"></path><path fill="none" class="highcharts-data-label-connector highcharts-color-2" stroke="#8bc34a" stroke-width="1" d="M 170.39541921802154 20.61474594644966 C 175.39541921802154 20.61474594644966 281.41690317615735 42.68344493542566 281.730918913615 48.67522214395311 L 282.0449346510727 54.66699935248055"></path><g class="highcharts-label highcharts-data-label highcharts-data-label-color-0 " data-z-index="1" transform="translate(438,271)"><text x="5" data-z-index="1" style="font-size:11px;font-weight:bold;color:#000000;cursor:pointer;fill:#000000;" y="16"><tspan x="5" y="16" class="highcharts-text-outline" fill="#FFFFFF" stroke="#FFFFFF" stroke-width="2px" stroke-linejoin="round" style="">appeal of the applicant</tspan><tspan dy="14" x="5" class="highcharts-text-outline" fill="#FFFFFF" stroke="#FFFFFF" stroke-width="2px" stroke-linejoin="round" style="">was rejected</tspan><tspan x="5" y="16">appeal of the applicant</tspan><tspan dy="14" x="5">was rejected</tspan></text></g><g class="highcharts-label highcharts-data-label highcharts-data-label-color-1 " data-z-index="1" transform="translate(1,34)"><text x="5" data-z-index="1" style="font-size:11px;font-weight:bold;color:#000000;cursor:pointer;fill:#000000;" y="16"><tspan x="5" y="16" class="highcharts-text-outline" fill="#FFFFFF" stroke="#FFFFFF" stroke-width="2px" stroke-linejoin="round" style="">continuation of</tspan><tspan dy="14" x="5" class="highcharts-text-outline" fill="#FFFFFF" stroke="#FFFFFF" stroke-width="2px" stroke-linejoin="round" style="">examination procedure</tspan><tspan x="5" y="16">continuation of</tspan><tspan dy="14" x="5">examination procedure</tspan></text></g><g class="highcharts-label highcharts-data-label highcharts-data-label-color-2 " data-z-index="1" transform="translate(57,11)"><text x="5" data-z-index="1" style="font-size:11px;font-weight:bold;color:#000000;cursor:pointer;fill:#000000;" y="16"><tspan x="5" y="16" class="highcharts-text-outline" fill="#FFFFFF" stroke="#FFFFFF" stroke-width="2px" stroke-linejoin="round" style="">remittal for grant</tspan><tspan x="5" y="16">remittal for grant</tspan></text></g></g><g class="highcharts-legend" data-z-index="7"><rect fill="none" class="highcharts-legend-box" rx="0" ry="0" x="0" y="0" width="8" height="8" visibility="hidden"></rect><g data-z-index="1"><g></g></g></g><g stroke-linejoin="round" class="highcharts-3d-frame highcharts-3d-frame-top" data-z-index="1000"><path fill="none" d="M 17.572439189802537 76.82311871707702 L 581.4570193641143 76.82311871707702 L 589.8321255922708 143.84988524777702 L 9.168453284997213 143.84988524777702 Z" visibility="hidden"></path><path fill="none" d="M 10.16787440772913 143.84988524777702 L 589.8321255922708 143.84988524777702 L 581.5375681100861 77.46775794236135 L 18.462431889913887 77.46775794236135 Z" visibility="hidden"></path><path fill="none" d="M 17.572439189802537 76.82311871707702 L 9.168453284997213 143.84988524777702 L 10.16787440772913 143.84988524777702 L 18.462431889913887 77.46775794236135 Z" visibility="hidden"></path><path fill="none" d="M 589.8321255922708 143.84988524777702 L 581.4570193641143 76.82311871707702 L 581.5375681100861 77.46775794236135 L 589.8321255922708 143.84988524777702 Z" visibility="hidden"></path><path fill="none" d="M 9.168453284997213 143.84988524777702 L 589.8321255922708 143.84988524777702 L 589.8321255922708 143.84988524777702 L 10.16787440772913 143.84988524777702 Z" visibility="hidden"></path><path fill="none" d="M 581.4570193641143 76.82311871707702 L 17.572439189802537 76.82311871707702 L 18.462431889913887 77.46775794236135 L 581.5375681100861 77.46775794236135 Z" visibility="hidden"></path></g><g stroke-linejoin="round" class="highcharts-3d-frame highcharts-3d-frame-front" data-z-index="1000"><path fill="none" d="M 34.582284117121276 360.37304473294625 L 564.5056275121472 360.37304473294625 L 564.5767647441212 359.7648730790786 L 35.42323525587875 359.7648730790786 Z" visibility="hidden"></path><path fill="none" d="M 589.8321255922708 143.84988524777702 L 9.168453284997213 143.84988524777702 L 10.16787440772913 143.84988524777702 L 589.8321255922708 143.84988524777702 Z" visibility="hidden"></path><path fill="none" d="M 9.168453284997213 143.84988524777702 L 34.582284117121276 360.37304473294625 L 35.42323525587875 359.7648730790786 L 10.16787440772913 143.84988524777702 Z" visibility="hidden"></path><path fill="none" d="M 564.5056275121472 360.37304473294625 L 589.8321255922708 143.84988524777702 L 589.8321255922708 143.84988524777702 L 564.5767647441212 359.7648730790786 Z" visibility="hidden"></path><path fill="none" d="M 589.8321255922708 143.84988524777702 L 10.16787440772913 143.84988524777702 L 35.42323525587875 359.7648730790786 L 564.5767647441212 359.7648730790786 Z" visibility="hidden"></path><path fill="none" d="M 564.5056275121472 360.37304473294625 L 34.582284117121276 360.37304473294625 L 9.168453284997213 143.84988524777702 L 589.8321255922708 143.84988524777702 Z" visibility="hidden"></path></g></svg>